<svg width="800" height="600" xmlns="http://www.w3.org/2000/svg">

 <g>
  <title>Layer 1</title>
  <path d="m481.60001,174c0,0 -1,0 -3,0c-1,0 -1,0 -3,0c-1,0 -2,0 -2,0c-1,0 -2,0 -3,0c-1,0 -0.69345,0.4588 -2,1c-0.92389,0.38269 -2,0 -3,0c0,0 0,1 -1,1c0,0 -1.29291,-0.70711 -2,0c-0.70709,0.70711 -1,2 -1,2c0,1 -1,2 -1,2c-1,0 -1.29291,1.29289 -2,2c-0.70709,0.70711 -1,1 -1,1c0,1 -0.07611,0.61731 -1,1c-1.30655,0.5412 -1,2 -2,2c-1,0 -0.69345,1.4588 -2,2c-0.92389,0.38269 -2.29291,-0.70711 -3,0c-0.70709,0.70711 0,2 -1,2c-1,0 -2,0 -3,1c0,0 0,1 -1,1c-1,0 -2.29291,-0.70711 -3,0c-0.70709,0.70711 -1,2 -2,2c-1,0 -1.29291,1.29289 -2,2c-0.70709,0.70711 -2,0 -3,0c-1,0 -1,0 -2,0c-1,0 -2,0 -3,0c-1,0 -3,0 -4,0c-1,0 -3,0 -4,0c0,0 -2.07611,-0.38269 -3,0c-1.30655,0.5412 -1.69345,1.4588 -3,2c-0.92389,0.38269 -2,1 -2,1c-2,0 -2.29291,0.29289 -3,1c-0.70709,0.70711 -1,0 -2,0c-1,0 -2.4588,0.69344 -3,2c-0.38269,0.92387 -0.69345,1.4588 -2,2c-0.92389,0.38269 -1.29291,0.29289 -2,1c-0.70709,0.70711 -1.29291,1.29289 -2,2c-1.41422,1.41422 -1.29291,0.29289 -2,1c-0.70709,0.70711 -1.29291,0.29289 -2,1c-0.70709,0.70711 -1.29291,0.29289 -2,1c-0.70709,0.70711 -2,1 -3,1c-1,0 -1,1 -2,1c0,0 -1,0 -2,1c-1,1 -0.29291,1.29289 -1,2c-0.70709,0.70711 -1.69345,0.4588 -3,1c-0.92389,0.38269 -0.29291,0.29289 -1,1c-0.70709,0.70711 -2.29291,-0.70711 -3,0c-0.70709,0.70711 -1,1 -1,1c-1,1 -2.29291,0.29289 -3,1c-0.70709,0.70711 -1,1 -1,1c-1,1 -2,1 -3,2c-1,1 -2,2 -3,2c-2,0 -1.29291,1.29289 -2,2c-0.70709,0.70711 -2,0 -3,1c-1,1 -1.07611,0.61731 -2,1c-1.30655,0.5412 -2,1 -3,2c0,0 -0.29291,1.29289 -1,2c-1.41422,1.41422 -2.61731,0.07613 -3,1c-0.5412,1.30656 -2,1 -3,2c-1,1 -1,1 -1,1c-1,1 -0.69345,2.4588 -2,3c-0.92389,0.38269 -2,1 -2,2c0,1 -1,1 -2,2c-1,1 -2,1 -2,2c0,1 -0.4588,1.69344 -1,3c-0.38269,0.92387 -1,2 -1,3c0,1 0.70709,1.29289 0,2c-0.70709,0.70711 -1.4588,1.69344 -2,3c-0.38269,0.92389 0,2 0,3c0,1 0,1 0,1c0,1 0,2 0,3c0,1 0,1 0,2c0,1 0,2 0,3c0,0 1,0 1,1c0,1 0.29291,1.29291 1,2c0.70709,0.70709 1,1 1,2c0,1 1,1 1,2c0,1 0,1 0,1c1,1 1.29291,1.29291 2,2c0.70709,0.70709 1,2 1,2c1,0 1.4588,0.69345 2,2c0.38269,0.92389 0,2 1,2c1,0 1,1 2,1c0,0 1,1 1,2c0,1 1.07611,0.61731 2,1c1.30655,0.5412 0.23462,1.15225 1,3c0.5412,1.30655 2.29291,0.29291 3,1c0.70709,0.70709 1,1 1,2c0,0 -0.30655,1.4588 1,2c0.92389,0.38269 2.29291,-0.70709 3,0c0.70709,0.70709 -0.30655,1.4588 1,2c0.92389,0.38269 1.29291,1.29291 2,2c0.70709,0.70709 1,0 2,0c1,0 1.29291,0.29291 2,1c0.70709,0.70709 1,0 2,1c1,1 2,1 3,2c0,0 2.07611,-0.38269 3,0c1.30655,0.5412 2.15225,0.23462 4,1c1.30655,0.5412 2.29291,1.29291 3,2c1.41422,1.41422 3,1 5,1c1,0 2,0 3,0c1,0 2,0 2,0c0,1 1.69345,1.4588 3,2c0.92389,0.38269 1.07611,-0.38269 2,0c1.30655,0.5412 2.29291,0.29291 3,1c0.70709,0.70709 1,1 2,1c2,0 2,0 3,0c1,0 2.4588,-0.30655 3,1c0.38269,0.92389 0.69345,1.4588 2,2c0.92389,0.38269 2,0 2,0c1,1 2,1 3,1c0,0 1,0 2,0c2,0 4,0 6,0c1,0 3.08026,0.68927 6,0c2.17624,-0.51373 6.88495,-2.27432 9,-3c4.82303,-1.65482 7.07843,-0.78986 10,-2c2.06586,-0.85571 5.186,-0.69254 7,-2c1.14728,-0.8269 4,-1 5,-1c1,0 3.4588,0.30655 4,-1c0.38269,-0.92389 1.29291,-0.29291 2,-1c0.70709,-0.70709 1,-1 2,-1c0,0 1.69345,-0.4588 3,-1c0.92389,-0.38269 1,0 2,0c1,0 2,0 3,0c0,0 1,0 2,0c1,0 2,0 2,-1c0,0 1.29291,0.70709 2,0c0.70709,-0.70709 1.29291,-0.29291 2,-1c0.70709,-0.70709 1,-1 2,-1c1,0 2,-1 2,-1c1,0 1.69345,-0.4588 3,-1c0.92389,-0.38269 1,-1 1,-1c1,0 1.61731,-0.07611 2,-1c0.5412,-1.30655 2,-1 2,-1c0,-1 0.07611,-1.61731 1,-2c1.30655,-0.5412 1,-2 1,-2c0,-1 1.29291,-1.29291 2,-2c0.70709,-0.70709 0,-2 0,-2c0,0 -0.30655,-1.4588 1,-2c0.92389,-0.38269 1,-1 1,-2c0,0 0.61731,-0.07611 1,-1c0.5412,-1.30655 1,-2 1,-2c0,-1 1.4588,-0.69345 2,-2c0.38269,-0.92389 0.29291,-1.29291 1,-2c0.70709,-0.70709 1,-1 1,-2c0,-1 -0.38269,-2.07611 0,-3c0.5412,-1.30655 2,-3 2,-4c0,0 1.45877,-1.69345 1.99997,-3c0.38269,-0.92389 0,-1 0,-2c0,-1 0,-2 1,-3c0,0 0.23462,-0.15225 1,-2c0.5412,-1.30655 0.61731,-2.07613 1,-3c0.5412,-1.30656 1,-2 1,-3c0,0 0,-1 0,-2c0,-1 0.61731,-2.07613 1,-3c0.5412,-1.30656 2,-2 2,-3c0,0 0,-1 0,-2c0,-1 0,-2 0,-2c0,-1 0,-2 0,-3c0,-1 0,-1 0,-2c0,-1 0,-2 0,-3c0,0 0.22974,-1.02675 0,-2c-0.51373,-2.17625 -0.77026,-2.02675 -1,-3c-0.51373,-2.17625 -1.4588,-2.69344 -2,-4c-0.38269,-0.92387 0,-2 0,-3c0,-1 1.41418,-1.58578 0,-3c-0.70709,-0.70711 -1,-1 -1,-1c-1,-1 -2,-2 -3,-4c0,0 0.76538,-1.15224 0,-3c-0.5412,-1.30656 -2.48624,-0.82375 -2.99997,-3c-0.22977,-0.97325 -0.29291,-1.29289 -1,-2c-0.70709,-0.70711 -0.4588,-1.69344 -1,-3c-0.38269,-0.92387 -1.4588,-0.69344 -2,-2c-0.38269,-0.92387 -1,-3 -1,-3c-1,-1 -1,-3 -2,-4c-1,-1 -2,-3 -3,-4c-2,-2 -3,-4 -3,-5c0,-1 -1,-1 -3,-3c0,0 -0.61731,-1.07613 -1,-2c-0.5412,-1.30656 -2,-2 -3,-2c-1,0 -0.61731,-1.07613 -1,-2c-0.5412,-1.30656 -1,-2 -1,-2c-1,0 -1.29291,-1.29289 -2,-2c-0.70709,-0.70711 -1,-1 -1,-1c-1,0 -1,-1 -1,-1c-1,0 -2,0 -3,0c0,0 -1,0 -1,0c-1,0 -1.29291,0.29289 -2,1c-0.70709,0.70711 0,2 0,3c0,0 -1,0 -1,0l0,0l-1,-1" id="svg_5" stroke="#000" fill="#9ACEE6"/>
 </g>
</svg>